<svg width="24" height="24" viewBox="0 0 24 24" fill="none" xmlns="http://www.w3.org/2000/svg">
<g clip-path="url(#clip0)">
<path opacity="0.01" fill-rule="evenodd" clip-rule="evenodd" d="M23.0769 23.1821L0.96648 23.2257L0.923096 0.97262L23.0336 0.928955L23.0769 23.1821Z" fill="white"/>
<path d="M4.72986 10.3243C4.41232 9.56154 4.23694 8.72262 4.23694 7.84283C4.23694 4.28649 7.09848 1.40649 10.632 1.40649C14.1619 1.40649 17.0262 4.28649 17.0262 7.84283C17.0262 8.78951 16.9412 9.5281 16.5766 10.3382" stroke="#0B1320" stroke-linecap="round" stroke-linejoin="round"/>
<path fill-rule="evenodd" clip-rule="evenodd" d="M7.96876 1.96216C7.96876 1.96216 9.58968 2.91535 9.88783 4.88489C10.1214 6.4243 9.96537 8.45888 9.16137 9.76324C8.03983 11.5841 4.7546 12.4379 4.44353 9.09434C4.23953 6.90182 5.82629 4.11937 5.82629 4.11937L7.96876 1.96216Z" fill="white"/>
<path fill-rule="evenodd" clip-rule="evenodd" d="M7.96876 1.96216C7.96876 1.96216 9.58968 2.91535 9.88783 4.88489C10.1214 6.4243 9.96537 8.45888 9.16137 9.76324C8.03983 11.5841 4.7546 12.4379 4.44353 9.09434C4.23953 6.90182 5.82629 4.11937 5.82629 4.11937L7.96876 1.96216Z" stroke="#0B1320" stroke-linecap="round" stroke-linejoin="round"/>
<path fill-rule="evenodd" clip-rule="evenodd" d="M8.12833 1.9621L7.41571 1.53567C7.1711 1.39075 6.86925 1.38238 6.61725 1.51617L2.84002 3.51916C2.62033 3.63436 2.46617 3.84339 2.41817 4.0868L1.29941 9.81149C1.24679 10.0809 1.33079 10.3587 1.52279 10.5519L2.06741 11.1001C2.33694 11.3713 2.75787 11.4187 3.08002 11.2134L4.61602 10.2983L5.98587 4.11931L8.12833 1.9621Z" fill="white"/>
<path fill-rule="evenodd" clip-rule="evenodd" d="M8.12833 1.9621L7.41571 1.53567C7.1711 1.39075 6.86925 1.38238 6.61725 1.51617L2.84002 3.51916C2.62033 3.63436 2.46617 3.84339 2.41817 4.0868L1.29941 9.8115C1.24679 10.0809 1.33079 10.3587 1.52279 10.5519L2.06741 11.1001C2.33694 11.3713 2.75787 11.4187 3.08002 11.2134L4.61602 10.2983L5.98587 4.11931L8.12833 1.9621Z" stroke="#0B1320" stroke-linecap="round" stroke-linejoin="round"/>
<path fill-rule="evenodd" clip-rule="evenodd" d="M13.1196 1.9621L13.8322 1.53567C14.0759 1.39075 14.3787 1.38238 14.6298 1.51617L18.4079 3.51916C18.6267 3.63436 18.7818 3.84339 18.8298 4.0868L19.9476 9.81149C20.0012 10.0809 19.9172 10.3587 19.7242 10.5519L19.1796 11.1001C18.9101 11.3713 18.4892 11.4187 18.167 11.2134L16.6319 10.2983L15.2621 4.11931L13.1196 1.9621Z" fill="white"/>
<path fill-rule="evenodd" clip-rule="evenodd" d="M13.1196 1.9621L13.8322 1.53567C14.0759 1.39075 14.3787 1.38238 14.6298 1.51617L18.4079 3.51916C18.6267 3.63436 18.7818 3.84339 18.8298 4.0868L19.9476 9.8115C20.0012 10.0809 19.9172 10.3587 19.7242 10.5519L19.1796 11.1001C18.9101 11.3713 18.4892 11.4187 18.167 11.2134L16.6319 10.2983L15.2621 4.11931L13.1196 1.9621Z" stroke="#0B1320" stroke-linecap="round" stroke-linejoin="round"/>
<path fill-rule="evenodd" clip-rule="evenodd" d="M9.97264 7.49718L9.31633 9.52154C9.24341 9.74637 9.03479 9.8978 8.80033 9.8978H4.5911C4.31233 9.8978 4.07879 9.68505 4.05202 9.40634L3.74371 6.29688H17.5096L17.2013 9.40634C17.1736 9.68505 16.9409 9.8978 16.6622 9.8978H12.452C12.2176 9.8978 12.0099 9.74637 11.9369 9.52154L11.2797 7.49718H9.97264Z" fill="white"/>
<path fill-rule="evenodd" clip-rule="evenodd" d="M9.97264 7.49718L9.31633 9.52154C9.24341 9.74637 9.03479 9.8978 8.80033 9.8978H4.5911C4.31233 9.8978 4.07879 9.68505 4.05202 9.40634L3.74371 6.29688H17.5096L17.2013 9.40634C17.1736 9.68505 16.9409 9.8978 16.6622 9.8978H12.452C12.2176 9.8978 12.0099 9.74637 11.9369 9.52154L11.2797 7.49718H9.97264Z" stroke="#0B1320" stroke-linecap="round" stroke-linejoin="round"/>
<path fill-rule="evenodd" clip-rule="evenodd" d="M12.2597 13.9053C11.7778 14.0632 11.2341 14.1598 10.6314 14.1598C10.1191 14.1598 9.65753 14.1087 9.23291 13.9972" fill="white"/>
<path d="M12.2597 13.9053C11.7778 14.0632 11.2341 14.1598 10.6314 14.1598C10.1191 14.1598 9.65753 14.1087 9.23291 13.9972" stroke="#0B1320" stroke-linecap="round" stroke-linejoin="round"/>
<path fill-rule="evenodd" clip-rule="evenodd" d="M11.2789 11.7832L11.8678 10.9146C12.0654 10.6229 11.8577 10.228 11.5069 10.228H9.73828C9.38659 10.228 9.17982 10.6229 9.37736 10.9146L9.96536 11.7832C10.281 12.2487 10.9632 12.2487 11.2789 11.7832Z" fill="white"/>
<path fill-rule="evenodd" clip-rule="evenodd" d="M11.2789 11.7832L11.8678 10.9146C12.0654 10.6229 11.8577 10.228 11.5069 10.228H9.73828C9.38659 10.228 9.17982 10.6229 9.37736 10.9146L9.96536 11.7832C10.281 12.2487 10.9632 12.2487 11.2789 11.7832Z" stroke="#0B1320" stroke-linecap="round" stroke-linejoin="round"/>
<path fill-rule="evenodd" clip-rule="evenodd" d="M4.61633 10.1375L5.51356 12.9208V15.0836" fill="white"/>
<path d="M4.61633 10.1375L5.51356 12.9208V15.0836" stroke="#0B1320" stroke-linecap="round" stroke-linejoin="round"/>
<path fill-rule="evenodd" clip-rule="evenodd" d="M16.6019 10.1375L15.7047 12.9208V14.8486" fill="white"/>
<path d="M16.6019 10.1375L15.7047 12.9208V14.8486" stroke="#0B1320" stroke-linecap="round" stroke-linejoin="round"/>
<path fill-rule="evenodd" clip-rule="evenodd" d="M5.51501 12.9436C5.62117 14.404 7.6224 15.9109 10.6141 15.9109C13.6067 15.9109 15.7141 14.4059 15.7141 12.9436V14.849C15.7141 16.3104 13.6067 17.8164 10.6141 17.8164C7.6224 17.8164 5.51501 16.3104 5.51501 14.849V12.9436Z" fill="white"/>
<path fill-rule="evenodd" clip-rule="evenodd" d="M5.51501 12.9436C5.62117 14.404 7.6224 15.9109 10.6141 15.9109C13.6067 15.9109 15.7141 14.4059 15.7141 12.9436V14.849C15.7141 16.3104 13.6067 17.8164 10.6141 17.8164C7.6224 17.8164 5.51501 16.3104 5.51501 14.849V12.9436Z" stroke="#0B1320" stroke-linecap="round" stroke-linejoin="round"/>
<path d="M10.6307 12.2869V13.778" stroke="#0B1320" stroke-linecap="round" stroke-linejoin="round"/>
<path fill-rule="evenodd" clip-rule="evenodd" d="M7.83987 8.80008C7.45956 8.80008 7.15033 8.48886 7.15033 8.1061C7.15033 7.72334 7.45956 7.41211 7.83987 7.41211C8.22018 7.41211 8.52941 7.72334 8.52941 8.1061C8.52941 8.48886 8.22018 8.80008 7.83987 8.80008Z" fill="#0B1320"/>
<path fill-rule="evenodd" clip-rule="evenodd" d="M13.4135 8.80008C13.0332 8.80008 12.724 8.48886 12.724 8.1061C12.724 7.72334 13.0332 7.41211 13.4135 7.41211C13.7938 7.41211 14.1031 7.72334 14.1031 8.1061C14.1031 8.48886 13.7938 8.80008 13.4135 8.80008Z" fill="#0B1320"/>
<path fill-rule="evenodd" clip-rule="evenodd" d="M17.8171 12.8848C20.5235 12.8848 22.7168 15.0931 22.7168 17.817C22.7168 20.54 20.5235 22.7474 17.8171 22.7474C15.1097 22.7474 12.9164 20.54 12.9164 17.817C12.9164 15.0931 15.1097 12.8848 17.8171 12.8848Z" fill="white"/>
<path fill-rule="evenodd" clip-rule="evenodd" d="M17.8171 12.8848C20.5235 12.8848 22.7168 15.0931 22.7168 17.817C22.7168 20.54 20.5235 22.7474 17.8171 22.7474C15.1097 22.7474 12.9164 20.54 12.9164 17.817C12.9164 15.0931 15.1097 12.8848 17.8171 12.8848Z" stroke="#0B1320" stroke-linecap="round" stroke-linejoin="round"/>
<path d="M18 14.5397L18.5915 16.2624C18.7302 16.6664 19.1102 16.9377 19.5373 16.9377H21.3902L19.9395 17.9351C19.5695 18.1895 19.4145 18.6592 19.5603 19.0839L20.1254 20.7299L18.5666 19.6581C18.2253 19.4235 17.7747 19.4235 17.4334 19.6581L15.8746 20.7299L16.4397 19.0839C16.5855 18.6592 16.4305 18.1895 16.0605 17.9351L14.6098 16.9377L16.4627 16.9377C16.8898 16.9377 17.2698 16.6664 17.4085 16.2624L18 14.5397Z" stroke="#0B1320"/>
</g>
<defs>
<clipPath id="clip0">
<rect width="24" height="23.2258" fill="white"/>
</clipPath>
</defs>
</svg>
