<svg width="28" height="28" viewBox="0 0 28 28" fill="none" xmlns="http://www.w3.org/2000/svg">
<path d="M9.72727 7.63636H18.8182V9.45455H20.6364V5.81818C20.6364 4.81818 19.8182 4.00909 18.8182 4.00909L9.72727 4C8.72727 4 7.90909 4.81818 7.90909 5.81818V9.45455H9.72727V7.63636ZM17.3727 18.1727L21.5455 14L17.3727 9.82727L16.0909 11.1182L18.9727 14L16.0909 16.8818L17.3727 18.1727ZM12.4545 16.8818L9.57273 14L12.4545 11.1182L11.1727 9.82727L7 14L11.1727 18.1727L12.4545 16.8818ZM18.8182 20.3636H9.72727V18.5455H7.90909V22.1818C7.90909 23.1818 8.72727 24 9.72727 24H18.8182C19.8182 24 20.6364 23.1818 20.6364 22.1818V18.5455H18.8182V20.3636Z" fill="black"/>
</svg>
