<svg width="28" height="28" viewBox="0 0 28 28" fill="none" xmlns="http://www.w3.org/2000/svg">
<path d="M9.40375 10.5625L10.3925 4H5.25L3.10125 9.625C3.035 9.825 3 10.0325 3 10.25C3 11.63 4.4375 12.75 6.21375 12.75C7.85125 12.75 9.205 11.795 9.40375 10.5625ZM14.25 12.75C16.025 12.75 17.4637 11.63 17.4637 10.25C17.4637 10.1987 17.46 10.1475 17.4575 10.0988L16.8212 4H11.6787L11.0412 10.0938C11.0387 10.145 11.0362 10.1962 11.0362 10.25C11.0362 11.63 12.475 12.75 14.25 12.75ZM20.5 14.0575V19H8V14.065C7.4525 14.2625 6.85 14.375 6.21375 14.375C5.97 14.375 5.73375 14.3463 5.5 14.3138V22.25C5.5 23.2125 6.28625 24 7.2475 24H21.25C22.2125 24 23 23.2113 23 22.25V14.315C22.7637 14.3513 22.5253 14.3717 22.2862 14.3762C21.6767 14.3756 21.0721 14.2677 20.5 14.0575ZM25.4 9.625L23.2487 4H18.1075L19.095 10.5525C19.2875 11.79 20.6412 12.75 22.2862 12.75C24.0612 12.75 25.5 11.63 25.5 10.25C25.5 10.0325 25.465 9.825 25.4 9.625Z" fill="black"/>
</svg>
