<svg width="26" height="26" viewBox="0 0 26 26" fill="none" xmlns="http://www.w3.org/2000/svg">
<g opacity="0.01">
<path opacity="0.01" d="M24.9486 0.99992L1 1.0459L1.04598 24.9945L24.9945 24.9485L24.9486 0.99992Z" fill="white"/>
</g>
<path d="M8.5384 24.6146C12.4883 24.6146 15.6903 21.4126 15.6903 17.4627C15.6903 13.5128 12.4883 10.3108 8.5384 10.3108C4.5885 10.3108 1.38647 13.5128 1.38647 17.4627C1.38647 21.4126 4.5885 24.6146 8.5384 24.6146Z" stroke="#0B1320" stroke-linecap="round" stroke-linejoin="round"/>
<path d="M4.38586 11.3839V4.37866H11.6778" stroke="#0B1320" stroke-linecap="round" stroke-linejoin="round" stroke-dasharray="1.07 1.07"/>
<path d="M21.6226 14.6233V21.6152H14.264" stroke="#0B1320" stroke-linecap="round" stroke-linejoin="round" stroke-dasharray="1.07 1.07"/>
<path d="M17.4701 1.37918C13.5265 1.38653 10.3345 4.58748 10.3381 8.5311C10.3401 9.03956 10.3937 9.5465 10.4981 10.0441C11.0738 12.6683 13.0716 14.7485 15.6704 15.4297C16.2575 15.5858 16.8626 15.6642 17.4701 15.663C20.1118 15.8029 22.615 14.473 23.9779 12.2057C25.3407 9.93834 25.3407 7.10386 23.9779 4.83652C22.615 2.56918 20.1118 1.23935 17.4701 1.37918ZM20.7228 8.5311C20.7228 10.3275 19.2665 11.7838 17.4701 11.7838C15.6737 11.7838 14.2174 10.3275 14.2174 8.5311C14.2174 6.73469 15.6737 5.27841 17.4701 5.27841H19.9096C20.1258 5.27661 20.3337 5.36171 20.4866 5.5146C20.6395 5.66749 20.7245 5.87537 20.7228 6.09158V8.5311Z" fill="white" stroke="#0B1320" stroke-linecap="round" stroke-linejoin="round"/>
<path fill-rule="evenodd" clip-rule="evenodd" d="M7.51202 13.6169C7.1145 13.654 6.81055 13.9876 6.81055 14.3868C6.81055 14.786 7.1145 15.1196 7.51202 15.1566H8.27853V14.3901C8.28031 14.1857 8.20034 13.989 8.05639 13.8438C7.91245 13.6986 7.71647 13.6169 7.51202 13.6169ZM7.51202 15.6699H5.46575C5.06824 15.7069 4.76428 16.0405 4.76428 16.4397C4.76428 16.839 5.06824 17.1725 5.46575 17.2096H7.51202C7.90953 17.1725 8.21349 16.839 8.21349 16.4397C8.21349 16.0405 7.90953 15.7069 7.51202 15.6699Z" fill="#0B1320"/>
<path fill-rule="evenodd" clip-rule="evenodd" d="M12.3777 16.4363C12.3407 16.0388 12.0071 15.7348 11.6079 15.7348C11.2086 15.7348 10.875 16.0388 10.838 16.4363V17.2095H11.6045C12.0315 17.2095 12.3777 16.8633 12.3777 16.4363ZM10.3248 16.4363V14.3901C10.3248 13.9667 9.9816 13.6235 9.55826 13.6235C9.13493 13.6235 8.79175 13.9667 8.79175 14.3901V16.4363C8.79175 16.8596 9.13493 17.2028 9.55826 17.2028C9.9816 17.2028 10.3248 16.8596 10.3248 16.4363Z" fill="#0B1320"/>
<path fill-rule="evenodd" clip-rule="evenodd" d="M9.55826 21.3088C9.9816 21.3088 10.3248 20.9656 10.3248 20.5423C10.3248 20.1189 9.9816 19.7758 9.55826 19.7758H8.79175V20.5423C8.79175 20.9656 9.13493 21.3088 9.55826 21.3088ZM9.55826 19.2625H11.6045C11.8967 19.2897 12.179 19.1492 12.3335 18.8998C12.488 18.6504 12.488 18.335 12.3335 18.0855C12.179 17.8361 11.8967 17.6956 11.6045 17.7228H9.55826C9.16075 17.7599 8.85679 18.0934 8.85679 18.4927C8.85679 18.8919 9.16075 19.2255 9.55826 19.2625Z" fill="#0B1320"/>
<path fill-rule="evenodd" clip-rule="evenodd" d="M4.69922 18.4892C4.69922 18.9125 5.0424 19.2557 5.46573 19.2557C5.88907 19.2557 6.23225 18.9125 6.23225 18.4892V17.7227H5.46573C5.0424 17.7227 4.69922 18.0658 4.69922 18.4892ZM6.74548 18.4892V20.5421C6.74548 20.9654 7.08866 21.3086 7.512 21.3086C7.93533 21.3086 8.27851 20.9654 8.27851 20.5421V18.4892C8.27851 18.0658 7.93533 17.7227 7.512 17.7227C7.08866 17.7227 6.74548 18.0658 6.74548 18.4892Z" fill="#0B1320"/>
</svg>
