<svg width="67" height="67" viewBox="0 0 67 67" fill="none" xmlns="http://www.w3.org/2000/svg">
<path d="M7.62132 36.1053V21.4787C7.62132 19.651 6.13962 18.1694 4.31185 18.1694C2.48408 18.1694 1.00239 19.651 1.00239 21.4787V38.0067C0.950361 40.0622 1.75117 42.0475 3.21479 43.4917L12.0279 52.3042V57.5881H22.9985V47.898C23.0333 45.8457 22.2351 43.8668 20.7861 42.413L13.1432 34.6975C12.3713 33.8369 11.1876 33.4724 10.0653 33.7498C8.94308 34.0272 8.06545 34.9011 7.78342 36.0222C7.50139 37.1432 7.86097 38.3284 8.71838 39.1037L14.2037 44.5887" stroke="#0B1320" stroke-width="1.5" stroke-linecap="round" stroke-linejoin="round"/>
<path d="M25.284 57.6245H7.62134V62.2685H25.284V57.6245Z" fill="white" stroke="#0B1320" stroke-width="1.5" stroke-linecap="round" stroke-linejoin="round"/>
<path d="M58.3787 36.1053V21.4787C58.3787 19.651 59.8604 18.1694 61.6882 18.1694C63.516 18.1694 64.9977 19.651 64.9977 21.4787V38.0067C65.0497 40.0622 64.2489 42.0475 62.7853 43.4917L53.9722 52.3042V57.5881H43.0016V47.898C42.9667 45.8457 43.7649 43.8668 45.214 42.413L52.93 34.6975C53.7018 33.8369 54.8856 33.4724 56.0078 33.7498C57.1301 34.0272 58.0077 34.9011 58.2898 36.0222C58.5718 37.1432 58.2122 38.3284 57.3548 39.1037L51.8695 44.5887" stroke="#0B1320" stroke-width="1.5" stroke-linecap="round" stroke-linejoin="round"/>
<path d="M58.3603 57.6245H40.7159V62.2685H58.3603V57.6245Z" fill="white" stroke="#0B1320" stroke-width="1.5" stroke-linecap="round" stroke-linejoin="round"/>
<path d="M45.0494 32.339C45.9993 32.3462 46.8958 31.9 47.4629 31.1379C48.03 30.3758 48.1998 29.389 47.92 28.4812C45.5647 22.2873 39.627 18.1929 33 18.1929C26.373 18.1929 20.4353 22.2873 18.08 28.4812C17.8002 29.389 17.97 30.3758 18.5371 31.1379C19.1042 31.9 20.0006 32.3462 20.9506 32.339H45.0494Z" fill="white" stroke="#0B1320" stroke-width="1.5" stroke-linecap="round" stroke-linejoin="round"/>
<path d="M33 18.1512C36.908 18.1512 40.076 14.9834 40.076 11.0756C40.076 7.16786 36.908 4 33 4C29.092 4 25.924 7.16786 25.924 11.0756C25.924 14.9834 29.092 18.1512 33 18.1512Z" fill="white" stroke="#0B1320" stroke-width="1.5" stroke-linecap="round" stroke-linejoin="round"/>
</svg>
