<svg width="26" height="26" viewBox="0 0 26 26" fill="none" xmlns="http://www.w3.org/2000/svg">
<path d="M10.9885 14.5264H15.0112" stroke="#0B1320" stroke-linecap="round" stroke-linejoin="round"/>
<path fill-rule="evenodd" clip-rule="evenodd" d="M20.6438 9.78174V14.9597L16.6205 17.4257H9.37913L5.35646 14.9597V9.78174L1.33313 12.4931V23.1451C1.33313 23.9857 2.01513 24.6671 2.85446 24.6671H23.1445C23.9851 24.6671 24.6665 23.9857 24.6665 23.1451V12.4931L20.6438 9.78174Z" fill="white"/>
<path fill-rule="evenodd" clip-rule="evenodd" d="M20.6438 9.78174V14.9597L16.6205 17.4257H9.37913L5.35646 14.9597V9.78174L1.33313 12.4931V23.1451C1.33313 23.9857 2.01513 24.6671 2.85446 24.6671H23.1445C23.9851 24.6671 24.6665 23.9857 24.6665 23.1451V12.4931L20.6438 9.78174Z" stroke="#0B1320" stroke-linecap="round" stroke-linejoin="round"/>
<path fill-rule="evenodd" clip-rule="evenodd" d="M6.68966 1.3335C5.95366 1.3335 5.35632 1.93016 5.35632 2.66683V9.7815V14.9588L9.37899 17.4255H16.6203L20.6437 14.9588V9.7815V2.66683C20.6437 1.93016 20.047 1.3335 19.3103 1.3335H6.68966Z" stroke="#0B1320" stroke-linecap="round" stroke-linejoin="round"/>
<path fill-rule="evenodd" clip-rule="evenodd" d="M17.0002 7.58717C17.0002 9.7525 16.3536 11.5078 15.5556 11.5078C14.7582 11.5078 14.1116 9.7525 14.1116 7.58717C14.1116 5.42184 14.7582 3.6665 15.5556 3.6665C16.3536 3.6665 17.0002 5.42184 17.0002 7.58717Z" stroke="#0B1320" stroke-linecap="round" stroke-linejoin="round"/>
<path d="M14.6825 6.55518C15.1385 6.55518 15.5078 7.01718 15.5078 7.58718C15.5078 8.15651 15.1385 8.61851 14.6825 8.61851" stroke="#0B1320" stroke-linecap="round" stroke-linejoin="round"/>
<path fill-rule="evenodd" clip-rule="evenodd" d="M14.8534 4.16211L12.048 6.14278H9.77804C8.98004 6.14278 8.33337 6.78878 8.33337 7.58744C8.33337 8.38478 8.98004 9.03144 9.77804 9.03144H12.048L14.8534 11.0121C14.4107 10.3428 14.1114 9.06078 14.1114 7.58744C14.1114 6.11411 14.4107 4.83211 14.8534 4.16211Z" fill="white"/>
<path fill-rule="evenodd" clip-rule="evenodd" d="M14.8534 4.16211L12.048 6.14278H9.77804C8.98004 6.14278 8.33337 6.78878 8.33337 7.58744C8.33337 8.38478 8.98004 9.03144 9.77804 9.03144H12.048L14.8534 11.0121C14.4107 10.3428 14.1114 9.06078 14.1114 7.58744C14.1114 6.11411 14.4107 4.83211 14.8534 4.16211Z" stroke="#0B1320" stroke-linecap="round" stroke-linejoin="round"/>
<path d="M4.14941 21.8506L9.37941 17.4253H16.6207L21.8507 21.8506" stroke="#0B1320" stroke-linecap="round" stroke-linejoin="round"/>
<path d="M16.6207 17.4257L24.6667 12.4937" stroke="#0B1320" stroke-linecap="round" stroke-linejoin="round"/>
<path d="M1.33325 12.4932L9.37925 17.4252" stroke="#0B1320" stroke-linecap="round" stroke-linejoin="round"/>
</svg>
