<svg width="24" height="24" viewBox="0 0 24 24" fill="none" xmlns="http://www.w3.org/2000/svg">
<path fill-rule="evenodd" clip-rule="evenodd" d="M0.923096 23.0769H23.0769V0.923096H0.923096V23.0769Z" fill="white" fill-opacity="0.01"/>
<path d="M4.01202 10.4803V3.87109H10.7714" stroke="#0B1320" stroke-linecap="round" stroke-linejoin="round" stroke-dasharray="1.25 2.49"/>
<path d="M19.9883 13.5334V20.1291H13.168" stroke="#0B1320" stroke-linecap="round" stroke-linejoin="round" stroke-dasharray="1.25 2.49"/>
<path fill-rule="evenodd" clip-rule="evenodd" d="M9.5997 9.4449C9.05385 9.29844 8.48339 9.21167 7.89201 9.21167C4.21324 9.21167 1.23047 12.2467 1.23047 15.9907C1.23047 19.7341 4.21324 22.7692 7.89201 22.7692C11.5708 22.7692 14.5529 19.7341 14.5529 15.9907C14.5529 15.4972 14.4982 15.0178 14.4003 14.5551C11.9972 13.9071 10.1271 11.9335 9.5997 9.4449Z" stroke="#0B1320" stroke-linecap="round" stroke-linejoin="round"/>
<path fill-rule="evenodd" clip-rule="evenodd" d="M16.1081 1.2312C12.4287 1.2312 9.44659 4.26628 9.44659 8.00966C9.44659 8.50259 9.50136 8.98259 9.59983 9.44536C10.1272 11.934 11.9974 13.9075 14.4004 14.5549C14.9463 14.7026 15.5167 14.7881 16.1081 14.7881C19.7869 14.7881 22.7691 11.7537 22.7691 8.00966C22.7691 4.26628 19.7869 1.2312 16.1081 1.2312Z" stroke="#0B1320" stroke-linecap="round" stroke-linejoin="round"/>
<path fill-rule="evenodd" clip-rule="evenodd" d="M16.6328 8.08682L20.2679 5.40497C20.1263 5.21051 19.9005 5.08374 19.6451 5.08374H12.6666C12.4033 5.08374 12.1713 5.21789 12.0309 5.42159L15.6789 8.08682C15.9663 8.29851 16.3454 8.29851 16.6328 8.08682Z" stroke="#0B1320" stroke-linecap="round" stroke-linejoin="round"/>
<path fill-rule="evenodd" clip-rule="evenodd" d="M19.6448 11.0015C20.0731 11.0015 20.4202 10.6482 20.4202 10.2125V5.87285C20.4202 5.69746 20.363 5.53562 20.2676 5.40454L16.6325 8.087C16.3451 8.29808 15.9661 8.29808 15.6787 8.087L12.0313 5.42177C11.9433 5.54977 11.8916 5.70546 11.8916 5.87285V10.2125C11.8916 10.6482 12.2387 11.0015 12.667 11.0015H19.6448Z" fill="white"/>
<path fill-rule="evenodd" clip-rule="evenodd" d="M19.6448 11.0015C20.0731 11.0015 20.4202 10.6482 20.4202 10.2125V5.87285C20.4202 5.69746 20.363 5.53562 20.2676 5.40454L16.6325 8.087C16.3451 8.29808 15.9661 8.29808 15.6787 8.087L12.0313 5.42177C11.9433 5.54977 11.8916 5.70546 11.8916 5.87285V10.2125C11.8916 10.6482 12.2387 11.0015 12.667 11.0015H19.6448Z" stroke="#0B1320" stroke-linecap="round" stroke-linejoin="round"/>
<path fill-rule="evenodd" clip-rule="evenodd" d="M6.14511 15.4828C6.7445 16.6804 7.46388 17.4083 8.64111 18.0219L9.4645 17.1302C9.5765 17.0157 9.74326 16.9776 9.8885 17.0287C10.3543 17.1856 10.7039 17.5142 11.2196 17.5142C11.4485 17.5142 11.6356 17.7043 11.6356 17.9376V19.6305C11.6356 19.8631 11.4485 20.0539 11.2196 20.0539C7.31373 20.0539 4.1488 16.3247 4.1488 12.3505C4.1488 12.1179 4.33588 11.9277 4.5648 11.9277H6.22819C6.45711 11.9277 6.6448 12.1179 6.6448 12.3505C6.6448 12.8797 6.96973 13.7388 7.12357 14.2133C7.16973 14.361 7.13588 14.5259 7.01957 14.6447L6.14511 15.4828Z" fill="white"/>
<path fill-rule="evenodd" clip-rule="evenodd" d="M6.14511 15.4828C6.7445 16.6804 7.46388 17.4083 8.64111 18.0219L9.4645 17.1302C9.5765 17.0157 9.74326 16.9776 9.8885 17.0287C10.3543 17.1856 10.7039 17.5142 11.2196 17.5142C11.4485 17.5142 11.6356 17.7043 11.6356 17.9376V19.6305C11.6356 19.8631 11.4485 20.0539 11.2196 20.0539C7.31373 20.0539 4.1488 16.3247 4.1488 12.3505C4.1488 12.1179 4.33588 11.9277 4.5648 11.9277H6.22819C6.45711 11.9277 6.6448 12.1179 6.6448 12.3505C6.6448 12.8797 6.96973 13.7388 7.12357 14.2133C7.16973 14.361 7.13588 14.5259 7.01957 14.6447L6.14511 15.4828Z" stroke="#0B1320" stroke-linecap="round" stroke-linejoin="round"/>
</svg>
