<svg width="26" height="24" viewBox="0 0 26 24" fill="none" xmlns="http://www.w3.org/2000/svg">
<path fill-rule="evenodd" clip-rule="evenodd" d="M1 24H25V0H1V24Z" fill="white" fill-opacity="0.01"/>
<path fill-rule="evenodd" clip-rule="evenodd" d="M22.1852 22.7205H3.81524C2.96724 22.7205 2.27991 22.0331 2.27991 21.1851V2.81512C2.27991 1.96712 2.96724 1.27979 3.81524 1.27979H22.1852C23.0332 1.27979 23.7206 1.96712 23.7206 2.81512V21.1851C23.7206 22.0331 23.0332 22.7205 22.1852 22.7205Z" stroke="#0B1320" stroke-linecap="round" stroke-linejoin="round"/>
<path d="M4.66211 22.7204V20.7351" stroke="#0B1320" stroke-linecap="round" stroke-linejoin="round"/>
<path d="M7.83826 22.7203V15.573" stroke="#0B1320" stroke-linecap="round" stroke-linejoin="round"/>
<path d="M11.0146 22.7203V12.397" stroke="#0B1320" stroke-linecap="round" stroke-linejoin="round"/>
<path d="M14.191 22.7203V12.397" stroke="#0B1320" stroke-linecap="round" stroke-linejoin="round"/>
<path d="M17.3674 22.7203V15.573" stroke="#0B1320" stroke-linecap="round" stroke-linejoin="round"/>
<path d="M20.5439 22.7204V11.603" stroke="#0B1320" stroke-linecap="round" stroke-linejoin="round"/>
<path d="M2.67676 18.3526L13.0001 8.82397" stroke="#0B1320" stroke-linecap="round" stroke-linejoin="round"/>
<path d="M16.9707 12.7938L23.3234 6.44116" stroke="#0B1320" stroke-linecap="round" stroke-linejoin="round"/>
<path d="M12.9999 8.82397L16.9705 12.794" stroke="#0B1320" stroke-linecap="round" stroke-linejoin="round"/>
<path fill-rule="evenodd" clip-rule="evenodd" d="M14.3434 8.82398C14.3434 8.08198 13.7414 7.47998 13.0001 7.47998C12.2587 7.47998 11.6567 8.08198 11.6567 8.82398C11.6567 9.56531 12.2587 10.1673 13.0001 10.1673C13.7414 10.1673 14.3434 9.56531 14.3434 8.82398Z" fill="white"/>
<path fill-rule="evenodd" clip-rule="evenodd" d="M14.3434 8.82398C14.3434 8.08198 13.7414 7.47998 13.0001 7.47998C12.2587 7.47998 11.6567 8.08198 11.6567 8.82398C11.6567 9.56531 12.2587 10.1673 13.0001 10.1673C13.7414 10.1673 14.3434 9.56531 14.3434 8.82398Z" stroke="#0B1320" stroke-linecap="round" stroke-linejoin="round"/>
<path fill-rule="evenodd" clip-rule="evenodd" d="M18.3137 12.794C18.3137 12.0527 17.7124 11.4507 16.9704 11.4507C16.2291 11.4507 15.6271 12.0527 15.6271 12.794C15.6271 13.536 16.2291 14.138 16.9704 14.138C17.7124 14.138 18.3137 13.536 18.3137 12.794Z" fill="white"/>
<path fill-rule="evenodd" clip-rule="evenodd" d="M18.3137 12.794C18.3137 12.0527 17.7124 11.4507 16.9704 11.4507C16.2291 11.4507 15.6271 12.0527 15.6271 12.794C15.6271 13.536 16.2291 14.138 16.9704 14.138C17.7124 14.138 18.3137 13.536 18.3137 12.794Z" stroke="#0B1320" stroke-linecap="round" stroke-linejoin="round"/>
<path fill-rule="evenodd" clip-rule="evenodd" d="M4.02016 18.3526C4.02016 17.6113 3.41816 17.0093 2.67683 17.0093C1.9355 17.0093 1.3335 17.6113 1.3335 18.3526C1.3335 19.0946 1.9355 19.6966 2.67683 19.6966C3.41816 19.6966 4.02016 19.0946 4.02016 18.3526Z" fill="white"/>
<path fill-rule="evenodd" clip-rule="evenodd" d="M4.02016 18.3526C4.02016 17.6113 3.41816 17.0093 2.67683 17.0093C1.9355 17.0093 1.3335 17.6113 1.3335 18.3526C1.3335 19.0946 1.9355 19.6966 2.67683 19.6966C3.41816 19.6966 4.02016 19.0946 4.02016 18.3526Z" stroke="#0B1320" stroke-linecap="round" stroke-linejoin="round"/>
<path fill-rule="evenodd" clip-rule="evenodd" d="M24.6666 6.44099C24.6666 5.69966 24.0653 5.09766 23.3233 5.09766C22.582 5.09766 21.98 5.69966 21.98 6.44099C21.98 7.18299 22.582 7.78499 23.3233 7.78499C24.0653 7.78499 24.6666 7.18299 24.6666 6.44099Z" fill="white"/>
<path fill-rule="evenodd" clip-rule="evenodd" d="M24.6666 6.44099C24.6666 5.69966 24.0653 5.09766 23.3233 5.09766C22.582 5.09766 21.98 5.69966 21.98 6.44099C21.98 7.18299 22.582 7.78499 23.3233 7.78499C24.0653 7.78499 24.6666 7.18299 24.6666 6.44099Z" stroke="#0B1320" stroke-linecap="round" stroke-linejoin="round"/>
</svg>
