<svg width="150" height="150" viewBox="0 0 150 150" fill="none" xmlns="http://www.w3.org/2000/svg">
<path d="M43.803 34.6651H73.6236C74.2445 34.6641 74.8594 34.7856 75.4332 35.0227C76.0069 35.2598 76.5283 35.6079 76.9673 36.0469C77.4063 36.4859 77.7543 37.0072 77.9914 37.581C78.2285 38.1547 78.3501 38.7697 78.3491 39.3905V52.5269C78.3491 53.7801 77.8512 54.9821 76.965 55.8683C76.0788 56.7544 74.8769 57.2523 73.6236 57.2523H52.5733L44.7664 65.0439V57.2447H43.803C43.1818 57.2467 42.5663 57.1262 41.9917 56.8901C41.4171 56.654 40.8947 56.3069 40.4544 55.8687C40.0141 55.4305 39.6645 54.9098 39.4256 54.3364C39.1867 53.763 39.0633 53.1481 39.0623 52.5269V39.3905C39.0623 38.7687 39.185 38.1529 39.4234 37.5786C39.6618 37.0043 40.0113 36.4827 40.4517 36.0437C40.8921 35.6047 41.4149 35.2569 41.9899 35.0204C42.565 34.7838 43.1811 34.6631 43.803 34.6651Z" fill="#CFD2D8"/>
<path d="M100.661 107.909L93.7794 95.5299C83.0746 93.6336 80.9489 85.2074 80.9489 85.2074C76.254 91.1333 55.5249 93.6184 56.0219 88.9082C56.3736 85.3527 68.9365 73.1721 75 67.4526L37.9842 73.5697V109.11C37.9842 109.11 66.115 130.091 76.4834 125.167L86.8442 120.235C86.8442 120.235 98.3213 113.094 100.661 107.909Z" fill="#D17042"/>
<path d="M112.016 82.2481C100.416 65.9614 78.2115 64.478 78.2115 64.478C78.2115 64.478 76.9345 65.6326 75 67.4524C68.9365 73.1719 56.3736 85.3525 55.9989 88.908C55.5019 93.5952 76.2311 91.1331 80.9259 85.2072C80.9259 85.2072 83.0287 93.6182 93.7564 95.5297L100.638 107.909C98.2984 113.093 86.8212 120.25 86.8212 120.25C104.339 120.25 111.993 114.08 111.993 114.08L112.016 82.2481Z" fill="#F2A168"/>
<path d="M75 67.4526C68.9365 73.1721 56.3736 85.3527 55.9989 88.9082C55.5019 93.5954 76.2311 91.1333 80.9259 85.2074C80.9259 85.2074 83.885 97.0516 100.661 95.8205" stroke="#0B1320" stroke-width="2.5" stroke-linecap="round" stroke-linejoin="round"/>
<path d="M75 67.4523L37.9842 73.5693V109.109C37.9842 109.109 66.115 130.091 76.4834 125.167L86.8442 120.235C104.362 120.235 112.016 114.064 112.016 114.064V82.2479C103.483 70.2661 89.2069 66.29 82.2564 65.036C81.0385 64.8144 79.7856 64.8816 78.5984 65.2322C77.4112 65.5828 76.3227 66.207 75.4206 67.0547L75 67.4523Z" stroke="#0B1320" stroke-width="2.5" stroke-linecap="round" stroke-linejoin="round"/>
<path d="M85.5137 120.625L79.3431 112.482" stroke="#0B1320" stroke-width="2.5" stroke-linecap="round" stroke-linejoin="round"/>
<path d="M93.7565 114.99L87.5859 106.846" stroke="#0B1320" stroke-width="2.5" stroke-linecap="round" stroke-linejoin="round"/>
<path d="M86.8441 120.25C86.8441 120.25 98.3136 113.093 100.661 107.909L93.7793 95.5298" stroke="#0B1320" stroke-width="2.5" stroke-linecap="round" stroke-linejoin="round"/>
<path d="M112.016 120.625H130V76.8647L112.016 74.5938V120.625Z" fill="#5D6476" stroke="#0B1320" stroke-width="2.5" stroke-linecap="round" stroke-linejoin="round"/>
<path d="M20 114.944H37.9842V68.9131L20 71.1917V114.944Z" fill="#FD6933" stroke="#0B1320" stroke-width="2.5" stroke-linecap="round" stroke-linejoin="round"/>
<path d="M97.1743 25H67.3537C66.1017 25 64.901 25.4968 64.015 26.3813C63.129 27.2659 62.6303 28.4658 62.6282 29.7178V42.8542C62.6303 44.1061 63.129 45.3061 64.015 46.1906C64.901 47.0751 66.1017 47.5719 67.3537 47.5719H88.4193L96.2185 55.3788V47.5719H97.1743C98.4263 47.5719 99.627 47.0751 100.513 46.1906C101.399 45.3061 101.898 44.1061 101.9 42.8542V29.7178C101.898 28.4658 101.399 27.2659 100.513 26.3813C99.627 25.4968 98.4263 25 97.1743 25Z" fill="#FFC700" stroke="#0B1320" stroke-width="2.5" stroke-linecap="round" stroke-linejoin="round"/>
<path d="M75.8182 37.2343L79.6413 41.0574L88.4346 32.2642" stroke="#0B1320" stroke-width="2.5" stroke-linecap="round"/>
<path d="M78.3261 52.5269C78.3261 53.7801 77.8283 54.982 76.9421 55.8682C76.0559 56.7544 74.854 57.2523 73.6007 57.2523H52.5733L44.7664 65.0439V57.2446H43.803C43.1818 57.2466 42.5663 57.1262 41.9917 56.8901C41.4171 56.654 40.8947 56.3069 40.4544 55.8687C40.0141 55.4305 39.6645 54.9098 39.4256 54.3364C39.1867 53.763 39.0633 53.148 39.0623 52.5269V39.3905C39.0623 38.1372 39.5601 36.9353 40.4463 36.0491C41.3325 35.1629 42.5344 34.665 43.7877 34.665H56.9241" stroke="#0B1320" stroke-width="2.5" stroke-linecap="round" stroke-linejoin="round"/>
<path d="M72.2397 118.01L78.3567 124.303C80.358 124.887 82.5028 124.729 84.3973 123.86C85.3353 123.403 86.1765 122.769 86.8747 121.994L79.3737 112.482" fill="#D17042"/>
<path d="M72.2397 118.01L78.3567 124.303C80.358 124.887 82.5028 124.729 84.3973 123.86C85.3353 123.403 86.1765 122.769 86.8747 121.994L79.3737 112.482" stroke="#0B1320" stroke-width="2.5" stroke-linecap="round" stroke-linejoin="round"/>
<path d="M98.4666 103.979L106.35 117.039C105.142 118.276 103.618 119.159 101.944 119.593C100.271 120.026 98.5103 119.995 96.8532 119.501L90.6979 110.922" fill="#D17042"/>
<path d="M98.4666 103.979L106.35 117.039C105.142 118.276 103.618 119.159 101.944 119.593C100.271 120.026 98.5103 119.995 96.8532 119.501L90.6979 110.922" stroke="#0B1320" stroke-width="2.5" stroke-linecap="round" stroke-linejoin="round"/>
<path d="M81.2088 114.944L86.8441 121.994C86.8441 121.994 92.4183 123.24 96.8226 119.501L91.8219 112.482" fill="#D17042"/>
<path d="M81.2088 114.944L86.8441 121.994C86.8441 121.994 92.4183 123.24 96.8226 119.501L91.8219 112.482" stroke="#0B1320" stroke-width="2.5" stroke-linecap="round" stroke-linejoin="round"/>
</svg>
