<svg width="150" height="150" viewBox="0 0 150 150" fill="none" xmlns="http://www.w3.org/2000/svg">
<path d="M63.5 84C77.031 84 88 73.031 88 59.5C88 45.969 77.031 35 63.5 35C49.969 35 39 45.969 39 59.5C39 73.031 49.969 84 63.5 84Z" fill="#0B1320"/>
<path d="M44.5 45L42.4229 33.7881L53 38C54.664 37.3175 53.9113 37.6312 54.7244 37.3175C59.7443 35.3795 65.2958 35.3224 70.3545 37.1567C75.4132 38.991 79.6378 42.5931 82.2488 47.2982C84.8598 52.0033 85.6811 57.4939 84.561 62.7571C83.4409 68.0202 80.4552 72.7007 76.1546 75.9349C71.854 79.1691 66.5288 80.7389 61.1615 80.3544C55.7942 79.97 50.7471 77.6574 46.9513 73.8432C43.1556 70.0291 40.8673 64.9709 40.5088 59.6018C40.1503 54.2328 41.2451 49.2849 44.5 45Z" fill="#CFD2D8" stroke="#0B1320" stroke-width="2.5" stroke-linecap="round" stroke-linejoin="round"/>
<path d="M62.7907 72.2076C70.5746 72.2076 76.8847 65.8975 76.8847 58.1136C76.8847 50.3296 70.5746 44.0195 62.7907 44.0195C55.0068 44.0195 48.6967 50.3296 48.6967 58.1136C48.6967 65.8975 55.0068 72.2076 62.7907 72.2076Z" fill="#B4DD64" stroke="#0B1320" stroke-width="2.5" stroke-linecap="round" stroke-linejoin="round"/>
<path d="M125.027 134.214L129.62 96.2705C129.62 96.2705 113.17 102.616 108.649 89.7668C106.373 83.3106 93.8333 82.2716 91.5253 76.8624C83.8081 58.6441 77.1775 61.6104 77.1775 69.1135C77.1775 78.5518 83.0546 82.3351 85.0295 86.2928C92.3581 100.974 64.7887 92.5586 59.0702 86.0549C54.8666 81.2961 53.8117 79.3212 51.3926 74.2213C46.9352 64.8068 42.9854 64.6006 44.2544 73.5868C45.8804 85.0476 53.8117 93.8038 56.9446 96.8415L43.5961 91.4403C32.635 86.277 27.4241 87.078 23.3553 87.8712C17.383 89.045 34.7527 95.628 40.5267 98.8878C46.3007 102.148 61.1482 107.937 61.1482 107.937C61.1482 107.937 42.6523 103.226 32.8571 100.403C27.551 98.872 12.4893 98.1343 27.432 104.773C34.6337 107.945 58.9988 115.766 58.9988 115.766C58.9988 115.766 40.8836 112.435 37.6635 112.038C32.6508 111.427 29.6369 112.038 29.399 113.307C29.1135 114.743 35.292 117.082 38.5597 118.288C57.1825 125.133 66.486 128.519 81.4684 131.121C95.8521 133.573 110.442 134.609 125.027 134.214Z" fill="#D17042" stroke="#0B1320" stroke-width="2.5" stroke-linecap="round" stroke-linejoin="round"/>
<path d="M47.1259 40.3407L48.1425 47.1304C48.1999 47.5139 48.6532 47.6889 48.9535 47.4434L54.3272 43.0501C54.6257 42.806 54.5473 42.3302 54.1862 42.1948L47.7959 39.7985C47.4389 39.6646 47.0694 39.9636 47.1259 40.3407Z" fill="#0B1320"/>
<path d="M113.678 94.4146H129.897V135.118H113.678V94.4146Z" fill="#FD6933" stroke="#0B1320" stroke-width="2.5" stroke-linecap="round" stroke-linejoin="round"/>
<path d="M34.6503 75.0274C32.6555 73.1817 31.2411 70.3482 30.3531 67.7316L34.6503 75.0274Z" fill="#D17042"/>
<path d="M34.6503 75.0274C32.6555 73.1817 31.2411 70.3482 30.3531 67.7316" stroke="#D0D3D9" stroke-width="2.5" stroke-linecap="round" stroke-linejoin="round"/>
<path d="M26 54H25" stroke="#0B1320" stroke-width="3.33" stroke-linecap="round" stroke-linejoin="round"/>
<path d="M29 37L31 38" stroke="#0B1320" stroke-width="3.33" stroke-linecap="round" stroke-linejoin="round"/>
<path d="M39 24L41 27" stroke="#0B1320" stroke-width="3.33" stroke-linecap="round" stroke-linejoin="round"/>
<path d="M54 16C54.3365 17.665 54.6698 19.3317 55 21" stroke="#0B1320" stroke-width="3.33" stroke-linecap="round" stroke-linejoin="round"/>
<path d="M71 15C70.6667 16.998 70.3333 18.998 70 21L71 15Z" fill="#02D9E4"/>
<path d="M71 15C70.6667 16.998 70.3333 18.998 70 21" stroke="#0B1320" stroke-width="3.33" stroke-linecap="round" stroke-linejoin="round"/>
<path d="M89 20L84 27" stroke="#0B1320" stroke-width="3.33" stroke-linecap="round" stroke-linejoin="round"/>
<path d="M102 33L94 38" stroke="#0B1320" stroke-width="3.33" stroke-linecap="round" stroke-linejoin="round"/>
<path d="M111 54L97 54" stroke="#0B1320" stroke-width="3.33" stroke-linecap="round" stroke-linejoin="round"/>
</svg>
