<svg width="150" height="150" viewBox="0 0 150 150" fill="none" xmlns="http://www.w3.org/2000/svg">
<path d="M33.1058 87.3453C33.1058 87.3453 56.5666 84.0478 73.9645 75.3979C97.3146 63.8009 97.362 72.1084 94.7377 74.9598C94.7377 74.9598 117.487 64.3027 119.803 67.7914C121.692 70.1251 117.487 72.1163 117.487 72.1163C117.487 72.1163 121.092 70.6428 122.815 72.6341C124.538 74.6253 121.179 77.413 121.179 77.413C121.179 77.413 123.265 77.6679 123.423 79.5954C123.582 81.5229 121.265 83.9044 121.265 83.9044C121.265 83.9044 123.929 84.3345 121.265 87.9666C118.602 91.5986 97.1486 112.968 64.3526 121.786C31.5565 130.603 31.3905 128.014 31.3905 128.014L33.1058 87.3453Z" fill="#D17042" stroke="#0B1320" stroke-width="2.5" stroke-linecap="round" stroke-linejoin="round"/>
<path d="M117.487 72.1245L91.9395 84.279" stroke="#0B1320" stroke-width="2.5" stroke-linecap="round" stroke-linejoin="round"/>
<path d="M121.179 77.397L92.6826 91.1524" stroke="#0B1320" stroke-width="2.5" stroke-linecap="round" stroke-linejoin="round"/>
<path d="M121.265 83.8887L96.6031 96.6644" stroke="#0B1320" stroke-width="2.5" stroke-linecap="round" stroke-linejoin="round"/>
<path d="M94.7377 74.9756L78.2725 83.1954C78.2725 83.1954 77.7429 98.9341 60.5742 95.4773" fill="#D17042"/>
<path d="M94.7377 74.9756L78.2725 83.1954C78.2725 83.1954 77.7429 98.9341 60.5742 95.4773" stroke="#0B1320" stroke-width="2.5" stroke-linecap="round" stroke-linejoin="round"/>
<path d="M47.5316 81.292H31.3905V130.42H47.5316V81.292Z" fill="#FD6933" stroke="#0B1320" stroke-width="2.5" stroke-linecap="round" stroke-linejoin="round"/>
<path d="M94.9669 43.2276L93.1252 45.0914L79.0234 59.3327L73.2452 65.1153L53.3652 45.0914L49.8951 41.5869L51.476 43.1798C49.6123 41.3028 48.3098 38.9357 47.7172 36.3485C47.1245 33.7614 47.2657 31.0585 48.1244 28.5483C48.1244 28.4766 48.1798 28.4049 48.2114 28.3253C48.6994 26.953 49.4012 25.6679 50.2903 24.518C50.6466 24.0353 51.0321 23.5752 51.4444 23.1401C54.0833 20.4888 57.6578 19 61.3844 19C65.1109 19 68.6854 20.4888 71.3244 23.1401L73.2452 25.0915L75.0711 23.1958C77.7074 20.5395 81.2829 19.0471 85.0111 19.0471C88.7393 19.0471 92.3149 20.5395 94.9511 23.1958C97.5874 25.8522 99.0684 29.455 99.0684 33.2117C99.0684 36.9684 97.5874 40.5713 94.9511 43.2276H94.9669Z" fill="#E32329"/>
<path d="M51.8475 51.3117C33.0425 49.5833 20 45.8238 20 41.459C20 38.1616 27.4619 35.2066 39.2318 33.2153" stroke="#0B1320" stroke-width="2.5" stroke-linecap="round" stroke-linejoin="round"/>
<path d="M107.741 32.5146C122.143 34.474 130 37.7476 130 41.4593C130 46.055 115.527 49.9817 95.0855 51.5668" stroke="#0B1320" stroke-width="2.5" stroke-linecap="round" stroke-linejoin="round"/>
<path d="M119.756 28.9067L106.84 32.5865L116.973 39.7948" stroke="#0B1320" stroke-width="2.5" stroke-linecap="round" stroke-linejoin="round"/>
<path d="M95.0855 51.5669C88.8646 52.0528 82.0904 52.3156 75 52.3156C66.7318 52.3156 58.8905 51.9572 51.8475 51.312" stroke="#0B1320" stroke-width="2.5" stroke-linecap="round" stroke-linejoin="round"/>
<path d="M94.9669 23.204C93.6623 21.8874 92.1129 20.8429 90.4073 20.1303C88.7017 19.4176 86.8734 19.0508 85.0269 19.0508C83.1805 19.0508 81.3522 19.4176 79.6466 20.1303C77.941 20.8429 76.3916 21.8874 75.0869 23.204L73.2452 25.0519L71.3244 23.1403C68.6629 20.632 65.1385 19.2634 61.4948 19.3233C57.8511 19.3831 54.3729 20.8668 51.794 23.4613C49.2151 26.0557 47.7371 29.5581 47.6719 33.2296C47.6067 36.901 48.9593 40.4545 51.4444 43.1403L53.3652 45.0837L73.2452 65.1155L93.1252 45.0837L94.9669 43.2279C97.6015 40.5722 99.0815 36.9709 99.0815 33.216C99.0815 29.461 97.6015 25.8597 94.9669 23.204V23.204Z" stroke="#0B1320" stroke-width="2.5" stroke-linecap="round" stroke-linejoin="round"/>
<path d="M62.6057 34.3547C61.6197 34.736 60.7213 35.316 59.9655 36.0592C59.1661 36.8493 58.5436 37.8025 58.1396 38.8549C57.8883 37.7585 57.3364 36.7553 56.5468 35.9597C55.7571 35.164 54.7616 34.6079 53.6735 34.3547C54.7912 34.1622 55.8231 33.6283 56.6298 32.8254C57.4296 32.019 57.9577 30.9797 58.1396 29.8545C58.3839 30.9541 58.9335 31.9611 59.7243 32.7579C60.515 33.5547 61.5144 34.1085 62.6057 34.3547Z" fill="white"/>
</svg>
