<svg width="26" height="24" viewBox="0 0 26 24" fill="none" xmlns="http://www.w3.org/2000/svg">
<path d="M10.2666 17.4668V20.5335" stroke="#0B1320" stroke-linecap="round" stroke-linejoin="round"/>
<path fill-rule="evenodd" clip-rule="evenodd" d="M1.33337 17.4666H18V14.2666H1.33337V17.4666Z" fill="white"/>
<path d="M1.33337 17.4666H18V14.2666H1.33337V17.4666Z" stroke="#0B1320" stroke-linecap="round" stroke-linejoin="round"/>
<path d="M18 14.2665H1.33337V4.5332C1.33337 3.99987 1.80004 3.5332 2.33337 3.5332H18.2C18.7334 3.5332 19.2 3.99987 19.2 4.5332V9.06654H18.6667C18.2667 9.06654 18 9.39987 18 9.7332V10.3332V14.2665Z" stroke="#0B1320" stroke-linecap="round" stroke-linejoin="round"/>
<path fill-rule="evenodd" clip-rule="evenodd" d="M24.6667 11.0664H18V9.73307C18 9.39974 18.2667 9.06641 18.6667 9.06641H24C24.3333 9.06641 24.6667 9.33307 24.6667 9.73307V11.0664Z" fill="white"/>
<path d="M24.6667 11.0664H18V9.73307C18 9.39974 18.2667 9.06641 18.6667 9.06641H24C24.3333 9.06641 24.6667 9.33307 24.6667 9.73307V11.0664Z" stroke="#0B1320" stroke-linecap="round" stroke-linejoin="round"/>
<path fill-rule="evenodd" clip-rule="evenodd" d="M24 20.5333H18.6667C18.3333 20.5333 18 20.2667 18 19.8667V18H24.6667V19.8667C24.6667 20.2 24.4 20.5333 24 20.5333Z" fill="white"/>
<path d="M24 20.5333H18.6667C18.3333 20.5333 18 20.2667 18 19.8667V18H24.6667V19.8667C24.6667 20.2 24.4 20.5333 24 20.5333Z" stroke="#0B1320" stroke-linecap="round" stroke-linejoin="round"/>
<path d="M18 17.9997H24.6667V11.0664H18V17.9997Z" stroke="#0B1320" stroke-linecap="round" stroke-linejoin="round"/>
<path d="M20.2666 13.4668H22.3999" stroke="#0B1320" stroke-linecap="round" stroke-linejoin="round"/>
<path d="M22.3999 15.5996H20.2666" stroke="#0B1320" stroke-linecap="round" stroke-linejoin="round"/>
<path d="M5 10.4668H15.6" stroke="#0B1320" stroke-linecap="round" stroke-linejoin="round"/>
<path d="M5 7.2666H15.6" stroke="#0B1320" stroke-linecap="round" stroke-linejoin="round"/>
<path d="M6.06665 20.5332H14.5333" stroke="#0B1320" stroke-linecap="round" stroke-linejoin="round"/>
</svg>
