<svg width="26" height="26" viewBox="0 0 26 26" fill="none" xmlns="http://www.w3.org/2000/svg">
<path d="M14.4078 9.31971C13.5827 9.93854 12.4826 9.93854 11.7262 9.31971L3.20026 3.20026L11.6575 9.31971C12.4826 9.93854 13.5827 9.93854 14.4078 9.31971ZM14.4078 9.31971L22.865 3.20026L14.4078 9.31971ZM22.865 1H3.20026C1.96261 1 1 1.96261 1 3.20026V15.2329C1 16.4705 1.96261 17.4332 3.20026 17.4332H6.5694C7.18822 13.8577 10.5574 11.4512 14.064 12.07C16.8143 12.5513 18.9458 14.6828 19.4271 17.4332H22.7963C24.0339 17.4332 24.9965 16.4705 24.9965 15.2329V3.20026C25.0653 1.96261 24.1027 1 22.865 1ZM3.20026 15.2329L8.70089 9.73226L3.20026 15.2329ZM17.4332 9.73226L22.9338 15.2329L17.4332 9.73226Z" stroke="#0B1320" stroke-linecap="round" stroke-linejoin="round"/>
<path d="M13.1014 25.0654C9.4572 25.0654 6.50061 22.1776 6.50061 18.5334C6.50061 14.8892 9.38844 11.9326 13.1014 11.9326C16.6768 11.9326 19.6334 14.8205 19.6334 18.4646C19.6334 22.1088 16.7455 25.0654 13.1014 25.0654Z" fill="white" stroke="#0B1320" stroke-linecap="round" stroke-linejoin="round"/>
<path fill-rule="evenodd" clip-rule="evenodd" d="M14.4766 17.0892C14.4766 16.4016 13.9265 15.8516 13.2389 15.8516C12.5513 15.8516 12.0013 16.4016 12.0013 17.0892C12.0013 17.7768 12.5513 18.3268 13.2389 18.3268C13.9265 18.3268 14.4766 18.8769 14.4766 19.5645C14.4766 20.2521 13.9265 20.8021 13.2389 20.8021C12.5513 20.8021 12.0013 20.2521 12.0013 19.5645" fill="white"/>
<path d="M14.4766 17.0892C14.4766 16.4016 13.9265 15.8516 13.2389 15.8516C12.5513 15.8516 12.0013 16.4016 12.0013 17.0892C12.0013 17.7768 12.5513 18.3268 13.2389 18.3268C13.9265 18.3268 14.4766 18.8769 14.4766 19.5645C14.4766 20.2521 13.9265 20.8021 13.2389 20.8021C12.5513 20.8021 12.0013 20.2521 12.0013 19.5645" stroke="#0B1320"/>
<path fill-rule="evenodd" clip-rule="evenodd" d="M13.2388 15.4392V14.4766Z" fill="white"/>
<path d="M13.2388 15.4392V14.4766" stroke="#0B1320" stroke-linecap="round" stroke-linejoin="round"/>
<path fill-rule="evenodd" clip-rule="evenodd" d="M13.2388 20.8022V21.9024Z" fill="white"/>
<path d="M13.2388 20.8022V21.9024" stroke="#0B1320" stroke-linecap="round" stroke-linejoin="round"/>
</svg>
