<svg width="26" height="26" viewBox="0 0 26 26" fill="none" xmlns="http://www.w3.org/2000/svg">
<path fill-rule="evenodd" clip-rule="evenodd" d="M7.26672 8.80005H15.8001H7.26672Z" fill="white"/>
<path d="M7.26672 8.80005H15.8001" stroke="#0B1320" stroke-linecap="round" stroke-linejoin="round"/>
<path fill-rule="evenodd" clip-rule="evenodd" d="M7.06665 4.80005H18.9333H7.06665Z" fill="white"/>
<path d="M7.06665 4.80005H18.9333" stroke="#0B1320" stroke-linecap="round" stroke-linejoin="round"/>
<path fill-rule="evenodd" clip-rule="evenodd" d="M7.06665 6.80005H18.9333H7.06665Z" fill="white"/>
<path d="M7.06665 6.80005H18.9333" stroke="#0B1320" stroke-linecap="round" stroke-linejoin="round"/>
<path fill-rule="evenodd" clip-rule="evenodd" d="M20.6666 9.80005V13.6667L16.6666 15.4667H9.39996L5.39996 13.6667V9.80005L1.39996 12.5334V23.2C1.39996 24 2.06663 24.6667 2.86663 24.7334H23.1333C24 24.7334 24.6666 24.0667 24.6666 23.2V12.5334L20.6666 9.80005Z" fill="white" stroke="#0B1320" stroke-linecap="round" stroke-linejoin="round"/>
<path fill-rule="evenodd" clip-rule="evenodd" d="M6.66665 1.33325C5.93331 1.33325 5.33331 1.93325 5.33331 2.66659V13.5999L9.33331 15.3999H16.6L20.6 13.5999V2.66659C20.6 1.93325 20 1.33325 19.2666 1.33325H6.66665Z" stroke="#0B1320" stroke-linecap="round" stroke-linejoin="round"/>
<path fill-rule="evenodd" clip-rule="evenodd" d="M4.13324 21.8666L9.39991 15.3999H16.5999L21.8666 21.8666" fill="white"/>
<path d="M4.13324 21.8666L9.39991 15.3999H16.5999L21.8666 21.8666" stroke="#0B1320" stroke-linecap="round" stroke-linejoin="round"/>
<path fill-rule="evenodd" clip-rule="evenodd" d="M16.6 15.3999L24.6667 12.4666L16.6 15.3999Z" fill="white"/>
<path d="M16.6 15.3999L24.6667 12.4666" stroke="#0B1320" stroke-linecap="round" stroke-linejoin="round"/>
<path fill-rule="evenodd" clip-rule="evenodd" d="M1.33331 12.4666L9.39998 15.3999L1.33331 12.4666Z" fill="white"/>
<path d="M1.33331 12.4666L9.39998 15.3999" stroke="#0B1320" stroke-linecap="round" stroke-linejoin="round"/>
</svg>
