<svg width="28" height="28" viewBox="0 0 28 28" fill="none" xmlns="http://www.w3.org/2000/svg">
<g opacity="0.01">
<path opacity="0.01" d="M28 0H0V28H28V0Z" fill="white"/>
</g>
<path d="M6.86002 18C6.86002 18.08 6.86002 18.15 6.86002 18.22C6.40035 18.3404 5.92342 18.381 5.45002 18.34C4.977 18.2891 4.51876 18.1449 4.1018 17.9158C3.68484 17.6867 3.31743 17.3772 3.0208 17.0053C2.72416 16.6333 2.5042 16.2063 2.37361 15.7488C2.24303 15.2913 2.20442 14.8125 2.26002 14.34C2.38712 13.2606 2.727 12.2172 3.26002 11.27C3.73737 10.1286 4.0732 8.93302 4.26002 7.71C4.71002 5.71 6.70002 4.71 8.69002 4.65C8.37847 4.90316 8.08755 5.1807 7.82002 5.48C6.99637 6.4334 6.38207 7.54911 6.01688 8.75493C5.65169 9.96075 5.54374 11.2298 5.70002 12.48C5.81748 13.4924 6.00798 14.495 6.27002 15.48C6.40002 15.99 6.53002 16.56 6.69002 17.28C6.77002 17.55 6.82002 17.77 6.86002 18ZM25.73 14.38C25.6029 13.3006 25.263 12.2572 24.73 11.31C24.2527 10.1686 23.9168 8.97302 23.73 7.75C23.28 5.75 21.28 4.75 19.3 4.69C19.6116 4.94316 19.9025 5.2207 20.17 5.52C20.9937 6.4734 21.608 7.58911 21.9732 8.79493C22.3383 10.0008 22.4463 11.2698 22.29 12.52C22.1726 13.5324 21.9821 14.535 21.72 15.52C21.59 16.02 21.46 16.59 21.3 17.32C21.25 17.53 21.2 17.75 21.16 17.97C21.12 18.19 21.16 18.12 21.16 18.19C21.6197 18.3104 22.0966 18.351 22.57 18.31C23.5084 18.1994 24.3657 17.7242 24.9569 16.9871C25.5481 16.25 25.8258 15.31 25.73 14.37V14.38ZM16.88 11.27C16.6704 11.2798 16.4682 11.3511 16.2988 11.4749C16.1293 11.5987 16 11.7696 15.927 11.9664C15.8539 12.1631 15.8403 12.377 15.8879 12.5814C15.9355 12.7858 16.0421 12.9717 16.1946 13.116C16.347 13.2602 16.5385 13.3565 16.7452 13.3927C16.9519 13.429 17.1647 13.4037 17.3571 13.3199C17.5496 13.2361 17.7131 13.0976 17.8274 12.9216C17.9417 12.7456 18.0017 12.5399 18 12.33C18.0002 12.1852 17.9709 12.0418 17.9141 11.9086C17.8572 11.7754 17.7739 11.6552 17.6692 11.5552C17.5644 11.4551 17.4405 11.3774 17.3049 11.3266C17.1692 11.2759 17.0247 11.2532 16.88 11.26V11.27ZM21.3 12.42C21.1818 13.5011 20.9778 14.5712 20.69 15.62C20.57 16.08 20.45 16.56 20.33 17.14L20.21 17.68C19.91 19.15 19.59 20.68 18.02 21.68C17.7096 21.8891 17.3735 22.0571 17.02 22.18L16.61 22.66C16.3278 23.1 15.9427 23.4647 15.4879 23.7226C15.0332 23.9804 14.5225 24.1237 14 24.14C13.4976 24.1299 13.0054 23.997 12.5661 23.753C12.1269 23.509 11.754 23.1612 11.48 22.74L11 22.2C10.646 22.0783 10.3098 21.9102 10 21.7C8.43002 20.7 8.11002 19.14 7.81002 17.7L7.69002 17.16C7.57002 16.58 7.45002 16.1 7.33002 15.64C7.0422 14.5912 6.83823 13.5211 6.72002 12.44C6.56797 11.3197 6.65513 10.1798 6.97573 9.09561C7.29634 8.0114 7.84312 7.00747 8.58002 6.15C9.26847 5.40461 10.1081 4.81474 11.0428 4.41983C11.9775 4.02492 12.9857 3.83406 14 3.86H14.09C15.0961 3.84055 16.0949 4.03459 17.0205 4.42932C17.9461 4.82404 18.7776 5.41049 19.46 6.15C20.1894 7.00557 20.7302 8.00526 21.0472 9.08388C21.3643 10.1625 21.4504 11.2958 21.3 12.41V12.42ZM10.05 12.34C10.05 12.5516 10.1128 12.7585 10.2303 12.9345C10.3479 13.1104 10.515 13.2476 10.7105 13.3285C10.9061 13.4095 11.1212 13.4307 11.3288 13.3894C11.5363 13.3482 11.727 13.2462 11.8766 13.0966C12.0263 12.947 12.1282 12.7563 12.1695 12.5487C12.2107 12.3412 12.1896 12.126 12.1086 11.9305C12.0276 11.735 11.8904 11.5679 11.7145 11.4503C11.5385 11.3328 11.3316 11.27 11.12 11.27C10.838 11.27 10.5673 11.3813 10.3669 11.5798C10.1665 11.7784 10.0527 12.048 10.05 12.33V12.34ZM15.17 22.34C14.7441 22.2686 14.3422 22.0935 14 21.83C13.6587 22.1031 13.2519 22.2824 12.82 22.35C12.9647 22.5208 13.1458 22.657 13.3499 22.7487C13.5541 22.8404 13.7762 22.8853 14 22.88C14.2218 22.8817 14.4413 22.8352 14.6433 22.7437C14.8454 22.6522 15.0251 22.5179 15.17 22.35V22.34ZM18.48 7C17.9136 6.38133 17.2198 5.89287 16.4464 5.5683C15.6729 5.24373 14.8383 5.09078 14 5.12C13.0259 5.10775 12.0628 5.32711 11.19 5.76C12.3042 6.24639 13.2155 7.10372 13.769 8.18618C14.3224 9.26865 14.4838 10.5094 14.2257 11.6974C13.9676 12.8855 13.3059 13.9474 12.3532 14.7026C11.4005 15.4579 10.2156 15.8598 9.00002 15.84H8.65002C8.73002 16.16 8.81002 16.5 8.89002 16.84C8.89002 17.02 8.97002 17.21 9.01002 17.39C9.30002 18.78 9.53002 19.88 10.67 20.63C11.0435 20.9266 11.502 21.0963 11.9786 21.1143C12.4553 21.1323 12.9252 20.9976 13.32 20.73L13.55 20.54C12.93 20.18 11.77 19.42 11.77 18.63C11.77 17.84 12.21 17.36 13.93 17.36C15.65 17.36 16.09 17.89 16.09 18.63C16.09 19.37 15 20.14 14.38 20.5L14.61 20.69C15.0048 20.9576 15.4748 21.0923 15.9514 21.0743C16.428 21.0563 16.8865 20.8866 17.26 20.59C18.4 19.84 18.63 18.74 18.92 17.35C18.92 17.17 18.99 16.98 19.04 16.8C19.17 16.2 19.3 15.69 19.41 15.24C19.6842 14.2573 19.8781 13.254 19.99 12.24C20.1142 11.3096 20.0441 10.3636 19.7842 9.46175C19.5243 8.55984 19.0802 7.72162 18.48 7Z" fill="black"/>
</svg>
