<svg width="26" height="24" viewBox="0 0 26 24" fill="none" xmlns="http://www.w3.org/2000/svg">
<path fill-rule="evenodd" clip-rule="evenodd" d="M1 24H25V0H1V24Z" fill="white" fill-opacity="0.01"/>
<path fill-rule="evenodd" clip-rule="evenodd" d="M1.33398 5.70068V3.47862C1.33398 2.65993 1.99932 1.99658 2.81932 1.99658H23.1813C24.0013 1.99658 24.6666 2.65993 24.6666 3.47862V20.5164C24.6666 21.3498 24.032 21.9978 23.1813 21.9978H2.81932C1.96865 21.9978 1.33398 21.3498 1.33398 20.5164V5.70068Z" stroke="#0B1320" stroke-linecap="round" stroke-linejoin="round"/>
<path fill-rule="evenodd" clip-rule="evenodd" d="M24.666 5.70002H1.33337V3.47836C1.33337 2.65981 1.99871 1.99658 2.81871 1.99658H23.1807C24.0014 1.99658 24.666 2.65981 24.666 3.47836V5.70002Z" fill="white"/>
<path fill-rule="evenodd" clip-rule="evenodd" d="M24.666 5.70002H1.33337V3.47836C1.33337 2.65981 1.99871 1.99658 2.81871 1.99658H23.1807C24.0014 1.99658 24.666 2.65981 24.666 3.47836V5.70002Z" stroke="#0B1320" stroke-linecap="round" stroke-linejoin="round"/>
<path fill-rule="evenodd" clip-rule="evenodd" d="M3.93419 3.84832C3.93419 4.15355 3.68486 4.40105 3.37752 4.40105C3.06952 4.40105 2.82019 4.15355 2.82019 3.84832C2.82019 3.54242 3.06952 3.29492 3.37752 3.29492C3.68486 3.29492 3.93419 3.54242 3.93419 3.84832" fill="#0B1320"/>
<path fill-rule="evenodd" clip-rule="evenodd" d="M6.16209 3.84832C6.16209 4.15355 5.91276 4.40105 5.60543 4.40105C5.29743 4.40105 5.0481 4.15355 5.0481 3.84832C5.0481 3.54242 5.29743 3.29492 5.60543 3.29492C5.91276 3.29492 6.16209 3.54242 6.16209 3.84832" fill="#0B1320"/>
<path fill-rule="evenodd" clip-rule="evenodd" d="M8.39026 3.84832C8.39026 4.15355 8.14092 4.40105 7.83359 4.40105C7.52558 4.40105 7.27625 4.15355 7.27625 3.84832C7.27625 3.54242 7.52558 3.29492 7.83359 3.29492C8.14092 3.29492 8.39026 3.54242 8.39026 3.84832" fill="#0B1320"/>
<path fill-rule="evenodd" clip-rule="evenodd" d="M4.82157 7.67337H3.3249C3.18757 7.67337 3.0769 7.56337 3.0769 7.42687C3.0769 7.29036 3.18757 7.1797 3.3249 7.1797H4.82157C4.9589 7.1797 5.07024 7.29036 5.07024 7.42687C5.07024 7.56337 4.9589 7.67337 4.82157 7.67337" fill="#0B1320"/>
<path fill-rule="evenodd" clip-rule="evenodd" d="M19.4374 7.67337H18.7728C18.6354 7.67337 18.5234 7.56337 18.5234 7.42687C18.5234 7.29036 18.6354 7.1797 18.7728 7.1797H19.4374C19.5754 7.1797 19.6868 7.29036 19.6868 7.42687C19.6868 7.56337 19.5754 7.67337 19.4374 7.67337" fill="#0B1320"/>
<path fill-rule="evenodd" clip-rule="evenodd" d="M21.0553 7.67337H20.3906C20.2533 7.67337 20.142 7.56337 20.142 7.42687C20.142 7.29036 20.2533 7.1797 20.3906 7.1797H21.0553C21.1933 7.1797 21.3046 7.29036 21.3046 7.42687C21.3046 7.56337 21.1933 7.67337 21.0553 7.67337" fill="#0B1320"/>
<path fill-rule="evenodd" clip-rule="evenodd" d="M22.6735 7.67337H22.0089C21.8715 7.67337 21.7595 7.56337 21.7595 7.42687C21.7595 7.29036 21.8715 7.1797 22.0089 7.1797H22.6735C22.8115 7.1797 22.9229 7.29036 22.9229 7.42687C22.9229 7.56337 22.8115 7.67337 22.6735 7.67337" fill="#0B1320"/>
<path fill-rule="evenodd" clip-rule="evenodd" d="M14.2155 15.0425L16.3368 17.1621L14.2155 15.0425Z" stroke="#0B1320" stroke-linejoin="round"/>
<path fill-rule="evenodd" clip-rule="evenodd" d="M12.4475 15.7499C11.0808 15.7499 9.97278 14.6414 9.97278 13.2756C9.97278 11.9091 11.0808 10.8013 12.4475 10.8013C13.8141 10.8013 14.9228 11.9091 14.9228 13.2756C14.9228 14.6414 13.8141 15.7499 12.4475 15.7499Z" stroke="#0B1320"/>
</svg>
