<svg width="26" height="24" viewBox="0 0 26 24" fill="none" xmlns="http://www.w3.org/2000/svg">
<path fill-rule="evenodd" clip-rule="evenodd" d="M1 24H25V0H1V24Z" fill="white" fill-opacity="0.01"/>
<path d="M10.971 6.92728H6.40566L4.883 13.0153C5.249 13.3246 6.381 14.5966 6.913 15.0433C8.83833 16.6553 11.0857 18.3366 11.4783 18.594C11.811 18.8133 12.5203 19.1013 12.9997 19.1013C13.4597 19.1013 13.8663 19.002 14.0143 18.594C14.7637 19.2786 15.953 18.5613 16.0437 17.58C16.6563 18.15 18.1857 17.6153 18.0723 16.5653C18.799 17.0666 20.1377 16.174 19.5943 15.0433C18.9137 13.6266 15.061 11.0173 13.507 9.46395C12.623 9.78262 12.6563 9.90395 11.9857 9.97062C11.4963 10.702 10.697 11.3966 9.449 10.9853C8.20233 10.5746 9.29233 8.66128 10.169 7.78395C11.9097 6.04328 12.987 5.50662 15.029 6.41995C17.0697 7.33328 19.087 8.03595 19.087 8.03595L21.1157 14.0286L19.633 15.0253" stroke="#0B1320" stroke-linecap="round" stroke-linejoin="round"/>
<path d="M18.0725 16.5653C17.5505 16.1533 15.0292 13.522 15.0292 13.522" stroke="white"/>
<path fill-rule="evenodd" clip-rule="evenodd" d="M18.0725 16.8981C18.0005 16.8981 17.9272 16.8747 17.8659 16.8267C17.3319 16.4047 14.8919 13.8601 14.7879 13.7521C14.6612 13.6194 14.6659 13.4087 14.7985 13.2807C14.9312 13.1534 15.1419 13.1587 15.2699 13.2914C15.9665 14.0187 17.8652 15.9767 18.2792 16.3027C18.4232 16.4167 18.4479 16.6267 18.3345 16.7714C18.2685 16.8547 18.1705 16.8981 18.0725 16.8981Z" fill="#0B1320"/>
<path d="M16.0436 17.5796C15.3856 17.0536 13.7796 15.3396 13.507 15.043" stroke="white"/>
<path fill-rule="evenodd" clip-rule="evenodd" d="M16.0432 17.913C15.9699 17.913 15.8966 17.889 15.8352 17.8404C15.0859 17.241 13.2792 15.2877 13.2619 15.2684C13.1379 15.133 13.1459 14.9224 13.2819 14.7977C13.4179 14.675 13.6286 14.6817 13.7526 14.8177C14.0392 15.1297 15.6272 16.8197 16.2512 17.319C16.3952 17.4344 16.4179 17.6444 16.3039 17.7884C16.2379 17.8704 16.1406 17.913 16.0432 17.913Z" fill="#0B1320"/>
<path d="M14.0146 18.5941C13.3372 18.0241 12.0279 16.6468 11.4779 16.0581" stroke="white"/>
<path fill-rule="evenodd" clip-rule="evenodd" d="M14.0146 18.9274C13.9386 18.9274 13.8619 18.9014 13.7999 18.8487C13.0599 18.2254 11.6492 16.7287 11.2346 16.2854C11.1092 16.1507 11.1159 15.9401 11.2506 15.8141C11.3852 15.6887 11.5959 15.6967 11.7219 15.8301C12.0126 16.1407 13.4999 17.7241 14.2292 18.3394C14.3699 18.4581 14.3886 18.6681 14.2692 18.8087C14.2032 18.8867 14.1092 18.9274 14.0146 18.9274Z" fill="#0B1320"/>
<path d="M4.88306 13.0153C5.24906 13.3246 6.38106 14.5966 6.91306 15.0433C8.83839 16.6553 11.0857 18.3366 11.4784 18.594C11.8111 18.8133 12.5204 19.1013 12.9997 19.1013C13.4597 19.1013 13.8664 19.002 14.0144 18.594C14.7637 19.2793 15.9524 18.5613 16.0437 17.58C16.6564 18.15 18.1857 17.6153 18.0724 16.5653C18.7991 17.0666 20.1377 16.174 19.5944 15.0433C18.9137 13.6266 15.0611 11.0173 13.5071 9.46395C12.6224 9.78262 12.6564 9.90395 11.9857 9.97128C11.4957 10.702 10.6971 11.3966 9.44906 10.9853C8.20239 10.5746 9.29239 8.66128 10.1691 7.78395C11.9097 6.04328 12.9871 5.50662 15.0291 6.41995C17.0697 7.33395 19.0871 8.03595 19.0871 8.03595" stroke="#0B1320" stroke-linecap="round" stroke-linejoin="round"/>
<path fill-rule="evenodd" clip-rule="evenodd" d="M1.33325 14.0289H4.37659C4.37659 14.0289 6.17792 8.52226 6.40592 5.91293C5.60259 5.15226 1.33325 4.89893 1.33325 4.89893V14.0289Z" fill="white"/>
<path fill-rule="evenodd" clip-rule="evenodd" d="M1.33325 14.0289H4.37659C4.37659 14.0289 6.17792 8.52226 6.40592 5.91293C5.60259 5.15226 1.33325 4.89893 1.33325 4.89893V14.0289Z" stroke="#0B1320" stroke-linecap="round" stroke-linejoin="round"/>
<path fill-rule="evenodd" clip-rule="evenodd" d="M18.5976 6.92733C19.2789 8.02333 21.2609 13.73 21.6236 15.0433H24.6669V5.91333C20.7509 5.91333 18.5976 6.92733 18.5976 6.92733Z" fill="white"/>
<path fill-rule="evenodd" clip-rule="evenodd" d="M18.5976 6.92733C19.2789 8.02333 21.2609 13.73 21.6236 15.0433H24.6669V5.91333C20.7509 5.91333 18.5976 6.92733 18.5976 6.92733Z" stroke="#0B1320" stroke-linecap="round" stroke-linejoin="round"/>
</svg>
